NCIS Los Angeles.S02E24.Familia.HDTV.XviD-LOL.[VTV].avi



Format : AVI
Format/Info : Audio Video Interleave
Format profile : OpenDML
Overall bit rate : 2 040 Kbps
Writing application : VirtualDubMod 1.5.10.2 (build 2542/release)
Writing library : VirtualDubMod build 2542/release
Original source form : MAX TORRENTZ
Copyright : SIGISMUNT

Video ID : 0
Format : MPEG-4 Visual
Format profile : AdvancedSimple@L5
Format settings, BVOP : Yes
Format settings, QPel : No
Format settings, GMC : No warppoints
Format settings, Matrix : Custom
Codec ID : Xvid
Codec ID/Hint : XviD
Bit rate : 1 650 Kbps
Width : 720 pixels
Height : 384 pixels
Display aspect ratio : 1.875
Frame rate : 23.976 fps
Resolution : 24 bits
Colorimetry : 4:2:0
Scan type : Progressive
Bits/(Pixel*Frame) : 0.249
Stream size : 1.26 GiB (81%)
Writing library : XviD 58

Audio ID : 1
Format : AC-3
Format/Info : Audio Coding 3
Codec ID : 2000
Bit rate mode : Constant
Bit rate : 384 Kbps
Channel(s) : 6 channels
Channel positions : Front: L C R, Surround: L R, LFE
Sampling rate : 48.0 KHz
Stream size : 301 MiB (19%)
Alignment : Aligned on interleaves
Interleave, duration : 64 ms (1.53 video frames)
Interleave, preload duration : 192 ms

Source: DVDR-TWiZTED (proper encode , perfect a/v/sync quality, no sample, sorry! )

Uploader Note:This release it's not seedbox supported so please
leave it active as much possible,thanks

Note:If you have something to offer as early releases,seedboxes,
links,accounts,etc please contact us on torentz 3xforum ro
Seed Stats: 20-400 GiB at aprox 10 MiB/sec/20 slots per torrent


-----------------------------------------------------------
How To Get Your Maxspeed (uTorrent)
-----------------------------------------------------------


Torrent Client - Preferences - Bandwidth - Number of connections - Set aprox. 500 for each 
Torrent Client - Preferences - BiTorrent - Protocol Encryption - Forced
Bandwidth Allocation - High (Set download/upload limit - Unlimited)
Stop Other Active Torrents - Start downloading and wait for connections.
Enjoy and Seed for at least 1:1 ratio. Don't forget to say thanks/leave reviews.
Greets to all actual/future p2p/scene QUALITY groups and affiliate websites.
Don't trust IMDb robot or bad ratings,always watch some trailers first.
Ignore stupid comments/fake/mislabeled/no-Dvdrips/CAM/TS/RAR uploads.
Please spread this release/torrent to your friends/forums/etc.
If you need translation subs visit some subtitles sites.
Report if you see online streaming or other spam links.
Recommended movie player VLC PLAYER.	

---------------------------------------------------------------


PLEASE SEED!!

PLEASE SEED!!

PLEASE SEED!!

PLEASE SEED!!

PLEASE SEED!!


--------------------------------------


Good Movie. Enjoy. 
..
..
..
..
But Please don't forget to share guys!! 
..
..
..
..
Keep the community spirit alive!!

